<svg width="100" height="100" viewBox="0 0 100 100" fill="none" xmlns="http://www.w3.org/2000/svg">
    <circle cx="50" cy="50" r="45" fill="#89dceb"/>

    <path d="M40 25 C30 30, 25 45, 30 60 C32 70, 45 75, 50 70 C55 65, 50 50, 45 40 C42 35, 40 30, 40 25 Z" fill="#a6e3a1"/>

    <path d="M55 20 C65 22, 75 35, 72 50 C70 60, 60 70, 53 68 C48 65, 50 50, 55 40 C58 32, 57 25, 55 20 Z" fill="#a6e3a1"/>

    <path d="M70 65 C75 68, 78 75, 73 78 C68 80, 63 75, 65 70 C67 67, 68 65, 70 65 Z" fill="#a6e3a1"/>

    <circle cx="30" cy="70" r="3" fill="#a6e3a1" />
    <circle cx="60" cy="75" r="2" fill="#a6e3a1" />
</svg>
